<?xml version="1.0" encoding="UTF-8"?>
<svg width="744.09" height="1052.4" fill-rule="evenodd" image-rendering="optimizeQuality" shape-rendering="geometricPrecision" text-rendering="geometricPrecision" viewBox="0 0 210 297" xmlns="http://www.w3.org/2000/svg">
 <path d="m118.57 120.62a35.309 35.309 0 1 0 -70.618 0 35.309 35.309 0 1 0 70.618 0" fill="#00923f"/>
 <path d="m55.614 131.39v-21.548h16.874v-16.874h21.548v18.525h16.874v18.247h-16.874v17.204h-21.548v-15.554z" fill="#dededd"/>
 <path d="m86.3025,92.9244c-.4651.0829-.9267.1392-1.3994.166v.8568c.6553.2021 1.259.4903 1.8732.7904l.7152.426 .6522.467 .5901.5035 .5297.5354 .4714.5625 .4155.5849 .3622.602 .3122.6152 .2649.6235 .2217.6279 .3264,1.254 .1931,1.2271c.0534.5801.0854,1.1482.0963,1.7319-.0065.5098-.0265,1.0125-.062,1.522-.0708.7467-.1692,1.4795-.3162,2.2156-.0737.3686-.2145.7099-.3501,1.0604-.2247.5272-.4678,1.0289-.7395,1.5339-.4128.7207-.8572,1.3984-1.3483,2.0681-.9627,1.2634-2.0276,2.4479-3.2491,3.4669l-.2094.1649v12.5212c1.4445,1.1248 2.7858,2.4318 3.8467,3.9296 .4172.6162.8023,1.2606 1.0304,1.9741 .068.2376.1074.4828.1554.726 .0669.512.0996.9875.0983,1.5048l-.0956.9368-.2075.8774-.3022.814c-.1812.3825-.3726.7367-.5931,1.0984-.2252.3316-.4565.6419-.7102.9525l-.5118.5573c-.8157.797-1.7125,1.4915-2.7104,2.0472v11.3533l-.3309.5494-.2591.3307-.2908.2822-.32.2289-.3441.1717-.3599.1098-.3644.0481-.359-.0113-.3453-.0649-.3265-.1127-.3037-.1542-.2791-.1909-.2525-.2231-.225-.2531-.1949-.2799-.2431-.4558v-3.3409l-1.9022-1.3366-.4055-.4224c-.4571-.6532-.7508-1.4041-.8041-2.2029 .0082-.1249-.011-.2516-.0194-.3759 .0033-.2412.0224-.458.0616-.6952 .1064-.4555.2612-.8351.4847-1.2438 .652-1.0862 1.5811-1.9615 2.5849-2.7201v-11.6614c-.9401-.7591-1.7603-1.6146-2.5184-2.5527-.2916-.3879-.5642-.7767-.8274-1.1838-.2222-.3711-.4286-.7417-.6248-1.1269-.3044-.6498-.5521-1.2881-.7516-1.9767-.162-.6253-.2801-1.2412-.3136-1.8859-.0118-.401.0123-.802.0377-1.2013 .066-.6269.164-1.2204.3022-1.8344 .1151-.436.2422-.8578.3868-1.2836 .3033-.8057.6512-1.5539 1.0667-2.3065 .8919-1.5244 1.968-2.9084 3.2424-4.1309v-4.4507l.7495-.9725v-5.8733c-.2669.276-.5395.6163-.8917.783-.4476.3728-.9112.6622-1.4335.9204l-.5583.2164c-.4604.1321-.9054.2223-1.3866.1826-.2908-.0381-.5389-.1856-.7909-.3302l-.2609-.2177c-.436.4035-.8348.8446-1.2252,1.2936-.6046.7113-1.1849,1.448-1.7228,2.2127l-1.9537,1.441 .1062-1.7519-1.1311-.0603c1.171-1.0364 1.2372-1.4971 2.3819-2.5612 .5134-.4827 1.018-.9735 1.5154-1.4709l-.2316-.29-.2259-.4565c-.0647-.2396-.0969-.442-.1103-.6889l.0283-.4327c.1999-1.1935.8259-2.2884 1.5118-3.2689 .2943-.3436.5898-.6616.9133-.9761 .304-.27.607-.5162.9333-.7571 .3091-.2075.6152-.3956.9405-.5751 .5878-.2936 1.1566-.5156 1.7887-.6908 .5972-.1432 1.189-.2399 1.8031-.2482v-.5934c-1.0545-.311-2.0105-.8419-2.8453-1.5552-.1775-.1633-.345-.3291-.5106-.5061-.4326-.4997-.7566-.9994-1.0286-1.6033-.1222-.3059-.2183-.6026-.299-.9232-.0916-.4451-.1311-.8612-.1388-1.3161 .0166-.3629.0534-.6996.1149-1.0583 .0823-.3524.1789-.6793.3012-1.0204 .1413-.3357.2928-.6473.4687-.9665 .1943-.3139.3954-.606.6191-.9002 .326-.3902.6589-.7364 1.034-1.0799 .4016-.338.8037-.6343 1.244-.9198 .4674-.2774.9292-.5141 1.4263-.7335 .5245-.2076 1.0365-.3751 1.5817-.5191 .4192-.0936.8295-.168 1.2542-.228 .4154-.0417.8196-.0668 1.2364-.0754 .5396.0102 1.0522.0501 1.587.126 .3823.0703.7497.1537 1.1253.2562 .4826.1543.9277.3288 1.3855.5465 .3237.1733.6269.3543.9325.5582 .2905.2158.5559.435.8221.6805 .2502.2577.4719.5135.691.7981 .2025.2988.3736.5876.5374.9087 .1456.3362.2593.6548.3598,1.0066 .0782.3626.1289.7021.1591,1.0709 .0065.3654-.0093.7043-.0487,1.0667-.0613.3574-.1387.6879-.2414,1.0347-.1225.3427-.2564.6596-.4148.9861-.1779.3224-.3629.6211-.571.9233-.227.2986-.4585.5745-.7109.8503-.2713.2712-.5449.5216-.8377.7676-.5293.4091-1.0559.7479-1.6434,1.0655-.3691.1808-.7348.3421-1.1163.4927-.587.206-1.1649.3726-1.775.4916zm-5.4482,58.1194v-2.9172c-.2244.2684-.452.5493-.6393.8468 .051.3678.1286.7339.2434,1.0879 .1149.3324.2628.6565.3959.9825zm-.0117-28.6728c-.0172.0861-.0128.1035.0117.1947v-.2444l-.0117.0497zm.0117.2398c-.0444.3606-.0653.6679 0,1.0279v-1.0279zm5.0339,13.4853c-.0767-.0936-.155-.186-.2356-.2762v3.8845l.9055-1.5779c.0539-.2966.0211-.5436-.032-.8383-.1087-.4536-.3543-.8292-.6379-1.1921zm-.6684-34.4279c-.1011-.1381-.2054-.2752-.3167-.4049v5.6268l.3124.3922c.3883-.631.6409-1.3291.7974-2.0489 .0448-.2876.0724-.5585.083-.8485-.0104-.4943-.0734-.9249-.212-1.3986-.1656-.4812-.3734-.9016-.6641-1.3181z" fill="none" stroke="#1f1a17" stroke-width=".0284"/>
 <path d="m86.3025,92.9244c-.4651.0829-.9267.1392-1.3994.166v.8568c.6553.2021 1.259.4903 1.8732.7904l.7152.426 .6522.467 .5901.5035 .5297.5354 .4714.5625 .4155.5849 .3622.602 .3122.6152 .2649.6235 .2217.6279 .3264,1.254 .1931,1.2271c.0534.5801.0854,1.1482.0963,1.7319-.0065.5098-.0265,1.0125-.062,1.522-.0708.7467-.1692,1.4795-.3162,2.2156-.0737.3686-.2145.7099-.3501,1.0604-.2247.5272-.4678,1.0289-.7395,1.5339-.4128.7207-.8572,1.3984-1.3483,2.0681-.9627,1.2634-2.0276,2.4479-3.2491,3.4669l-.2094.1649v12.5212c1.4445,1.1248 2.7858,2.4318 3.8467,3.9296 .4172.6162.8023,1.2606 1.0304,1.9741 .068.2376.1074.4828.1554.726 .0669.512.0996.9875.0983,1.5048l-.0956.9368-.2075.8774-.3022.814c-.1812.3825-.3726.7367-.5931,1.0984-.2252.3316-.4565.6419-.7102.9525l-.5118.5573c-.8157.797-1.7125,1.4915-2.7104,2.0472v11.3533l-.3309.5494-.2591.3307-.2908.2822-.32.2289-.3441.1717-.3599.1098-.3644.0481-.359-.0113-.3453-.0649-.3265-.1127-.3037-.1542-.2791-.1909-.2525-.2231-.225-.2531-.1949-.2799-.2431-.4558v-3.3409l-1.9022-1.3366-.4055-.4224c-.4571-.6532-.7508-1.4041-.8041-2.2029 .0082-.1249-.011-.2516-.0194-.3759 .0033-.2412.0224-.458.0616-.6952 .1064-.4555.2612-.8351.4847-1.2438 .652-1.0862 1.5811-1.9615 2.5849-2.7201v-11.6614c-.9401-.7591-1.7603-1.6146-2.5184-2.5527-.2916-.3879-.5642-.7767-.8274-1.1838-.2222-.3711-.4286-.7417-.6248-1.1269-.3044-.6498-.5521-1.2881-.7516-1.9767-.162-.6253-.2801-1.2412-.3136-1.8859-.0118-.401.0123-.802.0377-1.2013 .066-.6269.164-1.2204.3022-1.8344 .1151-.436.2422-.8578.3868-1.2836 .3033-.8057.6512-1.5539 1.0667-2.3065 .8919-1.5244 1.968-2.9084 3.2424-4.1309v-4.4507l.7495-.9725v-5.8733c-.2669.276-.5395.6163-.8917.783-.4476.3728-.9112.6622-1.4335.9204l-.5583.2164c-.4604.1321-.9054.2223-1.3866.1826-.2908-.0381-.5389-.1856-.7909-.3302l-.2609-.2177c-.436.4035-.8348.8446-1.2252,1.2936-.6046.7113-1.1849,1.448-1.7228,2.2127l-1.9537,1.441 .1062-1.7519-1.1311-.0603c1.171-1.0364 1.2372-1.4971 2.3819-2.5612 .5134-.4827 1.018-.9735 1.5154-1.4709l-.2316-.29-.2259-.4565c-.0647-.2396-.0969-.442-.1103-.6889l.0283-.4327c.1999-1.1935.8259-2.2884 1.5118-3.2689 .2943-.3436.5898-.6616.9133-.9761 .304-.27.607-.5162.9333-.7571 .3091-.2075.6152-.3956.9405-.5751 .5878-.2936 1.1566-.5156 1.7887-.6908 .5972-.1432 1.189-.2399 1.8031-.2482v-.5934c-1.0545-.311-2.0105-.8419-2.8453-1.5552-.1775-.1633-.345-.3291-.5106-.5061-.4326-.4997-.7566-.9994-1.0286-1.6033-.1222-.3059-.2183-.6026-.299-.9232-.0916-.4451-.1311-.8612-.1388-1.3161 .0166-.3629.0534-.6996.1149-1.0583 .0823-.3524.1789-.6793.3012-1.0204 .1413-.3357.2928-.6473.4687-.9665 .1943-.3139.3954-.606.6191-.9002 .326-.3902.6589-.7364 1.034-1.0799 .4016-.338.8037-.6343 1.244-.9198 .4674-.2774.9292-.5141 1.4263-.7335 .5245-.2076 1.0365-.3751 1.5817-.5191 .4192-.0936.8295-.168 1.2542-.228 .4154-.0417.8196-.0668 1.2364-.0754 .5396.0102 1.0522.0501 1.587.126 .3823.0703.7497.1537 1.1253.2562 .4826.1543.9277.3288 1.3855.5465 .3237.1733.6269.3543.9325.5582 .2905.2158.5559.435.8221.6805 .2502.2577.4719.5135.691.7981 .2025.2988.3736.5876.5374.9087 .1456.3362.2593.6548.3598,1.0066 .0782.3626.1289.7021.1591,1.0709 .0065.3654-.0093.7043-.0487,1.0667-.0613.3574-.1387.6879-.2414,1.0347-.1225.3427-.2564.6596-.4148.9861-.1779.3224-.3629.6211-.571.9233-.227.2986-.4585.5745-.7109.8503-.2713.2712-.5449.5216-.8377.7676-.5293.4091-1.0559.7479-1.6434,1.0655-.3691.1808-.7348.3421-1.1163.4927-.587.206-1.1649.3726-1.775.4916zm-5.4482,58.1194v-2.9172c-.2244.2684-.452.5493-.6393.8468 .051.3678.1286.7339.2434,1.0879 .1149.3324.2628.6565.3959.9825zm-.0117-28.6728c-.0172.0861-.0128.1035.0117.1947v-.2444l-.0117.0497zm.0117.2398c-.0444.3606-.0653.6679 0,1.0279v-1.0279zm5.0339,13.4853c-.0767-.0936-.155-.186-.2356-.2762v3.8845l.9055-1.5779c.0539-.2966.0211-.5436-.032-.8383-.1087-.4536-.3543-.8292-.6379-1.1921zm-.6684-34.4279c-.1011-.1381-.2054-.2752-.3167-.4049v5.6268l.3124.3922c.3883-.631.6409-1.3291.7974-2.0489 .0448-.2876.0724-.5585.083-.8485-.0104-.4943-.0734-.9249-.212-1.3986-.1656-.4812-.3734-.9016-.6641-1.3181z" fill="#dededd"/>
 <path d="m74.8482,100.981c-.9787-1.0534 1.089-3.8888 1.089-3.8888 2.8207-3.4488 6.5572-2.9199 6.5331-2.8003l.0335.0056v-2.292c-2.4607-.5368-4.3522-2.1236-4.7476-4.2966-.5832-3.2014 2.2966-6.4903 6.41-7.3215s7.9441,1.1019 8.5268,4.303-2.2968,6.4898-6.4105,7.3213c-.7766.1568-1.5431.2151-2.2794.1848v2.4156c9.4394,2.537 6.6338,13.4247 6.634,13.602-1.298,4.0035-5.1815,7.4826-5.8845,7.8402v13.4373c4.1362,3.1656 4.8978,5.5514 4.9513,5.8668 1.1669,5.0716-3.5568,7.8682-4.9513,8.5725v11.6423c-.8846,1.6688-2.4639,1.1635-2.9983,0v-9.6221c-1.4732,1.2693-2.2571,2.425-2.4712,2.8264 .1204,1.1272.3871,1.7477.3871,1.7477-.8365-.4972-1.0955-2.1002-1.0106-2.0999-.3438-1.758 1.7943-3.5821 3.0947-4.5102v-12.5462c-5.2201-4.0697-5.0391-8.5323-5.0391-8.5323 .0008-4.8118 3.3113-8.5419 5.0391-10.1325v-4.5319l.7426-.9634h.0069v-7.891c-.4542.0857-.7333.263-.7333.263-1.1399,1.1028-1.3653,1.4566-1.4778,1.4002-1.6274,1.4321-2.8779,1.244-2.8779,1.244-1.2487-.4725-.107-1.0079-.6219-1.1664-1.7113.9335-4.2002,4.5113-4.2002,4.5113l.5445-1.0888-.7.1555c1.9446-1.711 4.0443-3.9667 4.0443-3.9667 .0615-.1115.0594-.4379-.1746-.3189-.7363,1.0649-1.3534.6474-1.4587.63zm6.9061,17.7428c-1.2467,1.6816-1.9675,3.4893-1.8109,3.9205-.2495,1.6731.8331,3.2948 1.8109,4.3807v-8.3012zm2.9983,23.0709c1.8563-1.5154 2.9787-3.02 2.6958-4.414-.1271-1.4853-1.7932-2.8801-2.6958-3.5801v7.9941zm0-32.3524c4.1908-4.8121 1.2819-8.1881.9843-8.5814-.5975-.7573-1.1933-1.1748-1.7338-1.3899v7.7378h.003l.7465.937v1.2965z" fill="none" stroke="#fff" stroke-width=".0762"/>
 <path d="m74.8482,100.981c-.9787-1.0534 1.089-3.8888 1.089-3.8888 2.8207-3.4488 6.5572-2.9199 6.5331-2.8003l.0335.0056v-2.292c-2.4607-.5368-4.3522-2.1236-4.7476-4.2966-.5832-3.2014 2.2966-6.4903 6.41-7.3215s7.9441,1.1019 8.5268,4.303-2.2968,6.4898-6.4105,7.3213c-.7766.1568-1.5431.2151-2.2794.1848v2.4156c9.4394,2.537 6.6338,13.4247 6.634,13.602-1.298,4.0035-5.1815,7.4826-5.8845,7.8402v13.4373c4.1362,3.1656 4.8978,5.5514 4.9513,5.8668 1.1669,5.0716-3.5568,7.8682-4.9513,8.5725v11.6423c-.8846,1.6688-2.4639,1.1635-2.9983,0v-9.6221c-1.4732,1.2693-2.2571,2.425-2.4712,2.8264 .1204,1.1272.3871,1.7477.3871,1.7477-.8365-.4972-1.0955-2.1002-1.0106-2.0999-.3438-1.758 1.7943-3.5821 3.0947-4.5102v-12.5462c-5.2201-4.0697-5.0391-8.5323-5.0391-8.5323 .0008-4.8118 3.3113-8.5419 5.0391-10.1325v-4.5319l.7426-.9634h.0069v-7.891c-.4542.0857-.7333.263-.7333.263-1.1399,1.1028-1.3653,1.4566-1.4778,1.4002-1.6274,1.4321-2.8779,1.244-2.8779,1.244-1.2487-.4725-.107-1.0079-.6219-1.1664-1.7113.9335-4.2002,4.5113-4.2002,4.5113l.5445-1.0888-.7.1555c1.9446-1.711 4.0443-3.9667 4.0443-3.9667 .0615-.1115.0594-.4379-.1746-.3189-.7363,1.0649-1.3534.6474-1.4587.63zm6.9061,17.7428c-1.2467,1.6816-1.9675,3.4893-1.8109,3.9205-.2495,1.6731.8331,3.2948 1.8109,4.3807v-8.3012zm2.9983,23.0709c1.8563-1.5154 2.9787-3.02 2.6958-4.414-.1271-1.4853-1.7932-2.8801-2.6958-3.5801v7.9941zm0-32.3524c4.1908-4.8121 1.2819-8.1881.9843-8.5814-.5975-.7573-1.1933-1.1748-1.7338-1.3899v7.7378h.003l.7465.937v1.2965z" fill="#72706f"/>
</svg>
